<mxfile host="app.diagrams.net" modified="2020-04-28T17:00:50.835Z" agent="5.0 (Windows)" etag="q8y49lcSseqBEs2k_Frq" version="13.0.2" type="github">
  <diagram id="C5RBs43oDa-KdzZeNtuy" name="Page-1">
    <mxGraphModel dx="2089" dy="731" grid="1" gridSize="10" guides="1" tooltips="1" connect="1" arrows="1" fold="1" page="1" pageScale="1" pageWidth="827" pageHeight="1169" math="0" shadow="0">
      <root>
        <mxCell id="WIyWlLk6GJQsqaUBKTNV-0" />
        <mxCell id="WIyWlLk6GJQsqaUBKTNV-1" parent="WIyWlLk6GJQsqaUBKTNV-0" />
        <mxCell id="NKUO_NMi5fzmgAcy-49V-5" value="" style="endArrow=open;endSize=10;endFill=0;shadow=0;strokeWidth=1;rounded=0;edgeStyle=elbowEdgeStyle;elbow=vertical;fillColor=#e1d5e7;strokeColor=#514CD4;" parent="WIyWlLk6GJQsqaUBKTNV-1" source="zkfFHV4jXpPFQw0GAbJ--13" edge="1">
          <mxGeometry width="160" relative="1" as="geometry">
            <mxPoint x="310.0799999999999" y="300.96000000000004" as="sourcePoint" />
            <mxPoint x="310" y="250" as="targetPoint" />
            <Array as="points">
              <mxPoint x="310" y="290" />
              <mxPoint x="300" y="280" />
            </Array>
          </mxGeometry>
        </mxCell>
        <mxCell id="yFaYhaL_I76bNWqtTdkX-11" style="edgeStyle=orthogonalEdgeStyle;rounded=0;orthogonalLoop=1;jettySize=auto;html=1;exitX=0.25;exitY=1;exitDx=0;exitDy=0;entryX=1.031;entryY=0.231;entryDx=0;entryDy=0;entryPerimeter=0;endArrow=none;endFill=0;strokeColor=#000000;" parent="WIyWlLk6GJQsqaUBKTNV-1" source="zkfFHV4jXpPFQw0GAbJ--0" target="NKUO_NMi5fzmgAcy-49V-13" edge="1">
          <mxGeometry relative="1" as="geometry" />
        </mxCell>
        <mxCell id="zkfFHV4jXpPFQw0GAbJ--0" value="Principe in Regelbeheer (Doel)" style="swimlane;fontStyle=0;align=center;verticalAlign=top;childLayout=stackLayout;horizontal=1;startSize=26;horizontalStack=0;resizeParent=1;resizeLast=0;collapsible=1;marginBottom=0;rounded=0;shadow=0;strokeWidth=1;" parent="WIyWlLk6GJQsqaUBKTNV-1" vertex="1">
          <mxGeometry x="220" y="110" width="190" height="138" as="geometry">
            <mxRectangle x="230" y="140" width="160" height="26" as="alternateBounds" />
          </mxGeometry>
        </mxCell>
        <mxCell id="zkfFHV4jXpPFQw0GAbJ--1" value="Beschrijving" style="text;align=left;verticalAlign=top;spacingLeft=4;spacingRight=4;overflow=hidden;rotatable=0;points=[[0,0.5],[1,0.5]];portConstraint=eastwest;" parent="zkfFHV4jXpPFQw0GAbJ--0" vertex="1">
          <mxGeometry y="26" width="190" height="26" as="geometry" />
        </mxCell>
        <mxCell id="zkfFHV4jXpPFQw0GAbJ--2" value="Toelichting" style="text;align=left;verticalAlign=top;spacingLeft=4;spacingRight=4;overflow=hidden;rotatable=0;points=[[0,0.5],[1,0.5]];portConstraint=eastwest;rounded=0;shadow=0;html=0;" parent="zkfFHV4jXpPFQw0GAbJ--0" vertex="1">
          <mxGeometry y="52" width="190" height="26" as="geometry" />
        </mxCell>
        <mxCell id="zkfFHV4jXpPFQw0GAbJ--3" value="Rationale (onderbouwing)" style="text;align=left;verticalAlign=top;spacingLeft=4;spacingRight=4;overflow=hidden;rotatable=0;points=[[0,0.5],[1,0.5]];portConstraint=eastwest;rounded=0;shadow=0;html=0;" parent="zkfFHV4jXpPFQw0GAbJ--0" vertex="1">
          <mxGeometry y="78" width="190" height="26" as="geometry" />
        </mxCell>
        <mxCell id="NKUO_NMi5fzmgAcy-49V-6" value="" style="endArrow=none;endFill=0;shadow=0;strokeWidth=1;rounded=0;edgeStyle=elbowEdgeStyle;elbow=vertical;exitX=0.5;exitY=0;exitDx=0;exitDy=0;strokeColor=#000000;" parent="WIyWlLk6GJQsqaUBKTNV-1" source="zkfFHV4jXpPFQw0GAbJ--13" edge="1">
          <mxGeometry width="160" relative="1" as="geometry">
            <mxPoint x="299.5" y="478" as="sourcePoint" />
            <mxPoint x="90" y="460" as="targetPoint" />
            <Array as="points">
              <mxPoint x="299.5" y="478" />
              <mxPoint x="289.5" y="468" />
            </Array>
          </mxGeometry>
        </mxCell>
        <mxCell id="tqDPc9yleZxb04GqWjeg-1" value="Vergelijk &#39;maatregel&#39; of &#39;norm&#39; in Beveiliging" style="text;html=1;strokeColor=#d6b656;fillColor=#fff2cc;align=center;verticalAlign=middle;whiteSpace=wrap;rounded=0;" parent="WIyWlLk6GJQsqaUBKTNV-1" vertex="1">
          <mxGeometry x="200" y="630" width="200" height="35" as="geometry" />
        </mxCell>
        <mxCell id="yFaYhaL_I76bNWqtTdkX-12" value="" style="edgeStyle=orthogonalEdgeStyle;rounded=0;orthogonalLoop=1;jettySize=auto;html=1;endArrow=none;endFill=0;strokeColor=#000000;" parent="WIyWlLk6GJQsqaUBKTNV-1" source="tqDPc9yleZxb04GqWjeg-3" target="zkfFHV4jXpPFQw0GAbJ--1" edge="1">
          <mxGeometry relative="1" as="geometry" />
        </mxCell>
        <mxCell id="tqDPc9yleZxb04GqWjeg-5" value="Van Wet naar Loket &amp;amp; Feedback op wet" style="text;html=1;strokeColor=#d6b656;fillColor=#fff2cc;align=center;verticalAlign=middle;whiteSpace=wrap;rounded=0;" parent="WIyWlLk6GJQsqaUBKTNV-1" vertex="1">
          <mxGeometry x="470" y="144" width="160" height="36" as="geometry" />
        </mxCell>
        <mxCell id="tqDPc9yleZxb04GqWjeg-9" value="" style="edgeStyle=orthogonalEdgeStyle;rounded=0;orthogonalLoop=1;jettySize=auto;html=1;endArrow=none;endFill=0;" parent="WIyWlLk6GJQsqaUBKTNV-1" source="tqDPc9yleZxb04GqWjeg-7" edge="1">
          <mxGeometry relative="1" as="geometry">
            <mxPoint x="310" y="470" as="targetPoint" />
            <Array as="points">
              <mxPoint x="310" y="454" />
            </Array>
          </mxGeometry>
        </mxCell>
        <mxCell id="tqDPc9yleZxb04GqWjeg-7" value="Realiseert (afgeleid van de relaties van en naar &#39;aspect&#39;)" style="text;html=1;strokeColor=#d6b656;fillColor=#fff2cc;align=center;verticalAlign=middle;whiteSpace=wrap;rounded=0;" parent="WIyWlLk6GJQsqaUBKTNV-1" vertex="1">
          <mxGeometry x="340" y="436" width="160" height="30" as="geometry" />
        </mxCell>
        <mxCell id="tqDPc9yleZxb04GqWjeg-10" value="&#39;Toelichting&#39; waarschijnlijk niet gebruikt?" style="text;html=1;strokeColor=#d6b656;fillColor=#fff2cc;align=center;verticalAlign=middle;whiteSpace=wrap;rounded=0;" parent="WIyWlLk6GJQsqaUBKTNV-1" vertex="1">
          <mxGeometry x="10" y="263" width="150" height="40" as="geometry" />
        </mxCell>
        <mxCell id="tqDPc9yleZxb04GqWjeg-12" value="Maatregelen kunnen principes beinvloeden die in beide zichtlijnen vallen" style="text;html=1;strokeColor=#d6b656;fillColor=#fff2cc;align=center;verticalAlign=middle;whiteSpace=wrap;rounded=0;" parent="WIyWlLk6GJQsqaUBKTNV-1" vertex="1">
          <mxGeometry x="460" y="585" width="120" height="90" as="geometry" />
        </mxCell>
        <mxCell id="tqDPc9yleZxb04GqWjeg-15" value="Modeleerprincipe (Principe)" style="swimlane;fontStyle=0;align=center;verticalAlign=top;childLayout=stackLayout;horizontal=1;startSize=26;horizontalStack=0;resizeParent=1;resizeLast=0;collapsible=1;marginBottom=0;rounded=0;shadow=0;strokeWidth=1;" parent="WIyWlLk6GJQsqaUBKTNV-1" vertex="1">
          <mxGeometry x="630" y="214" width="160" height="106" as="geometry">
            <mxRectangle x="230" y="140" width="160" height="26" as="alternateBounds" />
          </mxGeometry>
        </mxCell>
        <mxCell id="tqDPc9yleZxb04GqWjeg-16" value="Beschrijving" style="text;align=left;verticalAlign=top;spacingLeft=4;spacingRight=4;overflow=hidden;rotatable=0;points=[[0,0.5],[1,0.5]];portConstraint=eastwest;" parent="tqDPc9yleZxb04GqWjeg-15" vertex="1">
          <mxGeometry y="26" width="160" height="26" as="geometry" />
        </mxCell>
        <mxCell id="tqDPc9yleZxb04GqWjeg-17" value="Toelichting" style="text;align=left;verticalAlign=top;spacingLeft=4;spacingRight=4;overflow=hidden;rotatable=0;points=[[0,0.5],[1,0.5]];portConstraint=eastwest;rounded=0;shadow=0;html=0;" parent="tqDPc9yleZxb04GqWjeg-15" vertex="1">
          <mxGeometry y="52" width="160" height="26" as="geometry" />
        </mxCell>
        <mxCell id="tqDPc9yleZxb04GqWjeg-18" value="Onderbouwing" style="text;align=left;verticalAlign=top;spacingLeft=4;spacingRight=4;overflow=hidden;rotatable=0;points=[[0,0.5],[1,0.5]];portConstraint=eastwest;rounded=0;shadow=0;html=0;" parent="tqDPc9yleZxb04GqWjeg-15" vertex="1">
          <mxGeometry y="78" width="160" height="26" as="geometry" />
        </mxCell>
        <mxCell id="tqDPc9yleZxb04GqWjeg-20" value="Bron" style="swimlane;fontStyle=0;align=center;verticalAlign=top;childLayout=stackLayout;horizontal=1;startSize=26;horizontalStack=0;resizeParent=1;resizeLast=0;collapsible=1;marginBottom=0;rounded=0;shadow=0;strokeWidth=1;" parent="WIyWlLk6GJQsqaUBKTNV-1" vertex="1">
          <mxGeometry x="630" y="382" width="160" height="138" as="geometry">
            <mxRectangle x="230" y="140" width="160" height="26" as="alternateBounds" />
          </mxGeometry>
        </mxCell>
        <mxCell id="tqDPc9yleZxb04GqWjeg-21" value="Beschrijving" style="text;align=left;verticalAlign=top;spacingLeft=4;spacingRight=4;overflow=hidden;rotatable=0;points=[[0,0.5],[1,0.5]];portConstraint=eastwest;" parent="tqDPc9yleZxb04GqWjeg-20" vertex="1">
          <mxGeometry y="26" width="160" height="26" as="geometry" />
        </mxCell>
        <mxCell id="tqDPc9yleZxb04GqWjeg-22" value="..." style="text;align=left;verticalAlign=top;spacingLeft=4;spacingRight=4;overflow=hidden;rotatable=0;points=[[0,0.5],[1,0.5]];portConstraint=eastwest;rounded=0;shadow=0;html=0;" parent="tqDPc9yleZxb04GqWjeg-20" vertex="1">
          <mxGeometry y="52" width="160" height="26" as="geometry" />
        </mxCell>
        <mxCell id="tqDPc9yleZxb04GqWjeg-23" value="..." style="text;align=left;verticalAlign=top;spacingLeft=4;spacingRight=4;overflow=hidden;rotatable=0;points=[[0,0.5],[1,0.5]];portConstraint=eastwest;rounded=0;shadow=0;html=0;" parent="tqDPc9yleZxb04GqWjeg-20" vertex="1">
          <mxGeometry y="78" width="160" height="26" as="geometry" />
        </mxCell>
        <mxCell id="tqDPc9yleZxb04GqWjeg-24" value="" style="line;html=1;strokeWidth=1;align=left;verticalAlign=middle;spacingTop=-1;spacingLeft=3;spacingRight=3;rotatable=0;labelPosition=right;points=[];portConstraint=eastwest;" parent="tqDPc9yleZxb04GqWjeg-20" vertex="1">
          <mxGeometry y="104" width="160" height="8" as="geometry" />
        </mxCell>
        <mxCell id="NKUO_NMi5fzmgAcy-49V-12" value="Aspect" style="swimlane;fontStyle=0;align=center;verticalAlign=top;childLayout=stackLayout;horizontal=1;startSize=26;horizontalStack=0;resizeParent=1;resizeLast=0;collapsible=1;marginBottom=0;rounded=0;shadow=0;strokeWidth=1;" parent="WIyWlLk6GJQsqaUBKTNV-1" vertex="1">
          <mxGeometry x="10" y="320" width="160" height="138" as="geometry">
            <mxRectangle x="230" y="140" width="160" height="26" as="alternateBounds" />
          </mxGeometry>
        </mxCell>
        <mxCell id="NKUO_NMi5fzmgAcy-49V-13" value="Beschrijving" style="text;align=left;verticalAlign=top;spacingLeft=4;spacingRight=4;overflow=hidden;rotatable=0;points=[[0,0.5],[1,0.5]];portConstraint=eastwest;" parent="NKUO_NMi5fzmgAcy-49V-12" vertex="1">
          <mxGeometry y="26" width="160" height="26" as="geometry" />
        </mxCell>
        <mxCell id="NKUO_NMi5fzmgAcy-49V-14" value="Toelichting" style="text;align=left;verticalAlign=top;spacingLeft=4;spacingRight=4;overflow=hidden;rotatable=0;points=[[0,0.5],[1,0.5]];portConstraint=eastwest;rounded=0;shadow=0;html=0;" parent="NKUO_NMi5fzmgAcy-49V-12" vertex="1">
          <mxGeometry y="52" width="160" height="26" as="geometry" />
        </mxCell>
        <mxCell id="yFaYhaL_I76bNWqtTdkX-7" style="edgeStyle=orthogonalEdgeStyle;rounded=0;orthogonalLoop=1;jettySize=auto;html=1;exitX=0;exitY=0.5;exitDx=0;exitDy=0;" parent="WIyWlLk6GJQsqaUBKTNV-1" source="tqDPc9yleZxb04GqWjeg-10" target="NKUO_NMi5fzmgAcy-49V-14" edge="1">
          <mxGeometry relative="1" as="geometry">
            <Array as="points">
              <mxPoint x="-10" y="283" />
              <mxPoint x="-10" y="385" />
            </Array>
          </mxGeometry>
        </mxCell>
        <mxCell id="yFaYhaL_I76bNWqtTdkX-24" style="edgeStyle=orthogonalEdgeStyle;rounded=0;orthogonalLoop=1;jettySize=auto;html=1;exitX=1;exitY=0.75;exitDx=0;exitDy=0;entryX=0;entryY=0.25;entryDx=0;entryDy=0;endArrow=none;endFill=0;strokeColor=#514CD4;" parent="WIyWlLk6GJQsqaUBKTNV-1" source="zkfFHV4jXpPFQw0GAbJ--13" target="tqDPc9yleZxb04GqWjeg-12" edge="1">
          <mxGeometry relative="1" as="geometry" />
        </mxCell>
        <mxCell id="j_EIYC90BVnd3u-F7O7h-6" value="" style="edgeStyle=orthogonalEdgeStyle;rounded=0;orthogonalLoop=1;jettySize=auto;html=1;" parent="WIyWlLk6GJQsqaUBKTNV-1" source="zkfFHV4jXpPFQw0GAbJ--13" target="j_EIYC90BVnd3u-F7O7h-2" edge="1">
          <mxGeometry relative="1" as="geometry" />
        </mxCell>
        <mxCell id="zkfFHV4jXpPFQw0GAbJ--13" value="Maatregel (bouwblok)" style="swimlane;fontStyle=0;align=center;verticalAlign=top;childLayout=stackLayout;horizontal=1;startSize=26;horizontalStack=0;resizeParent=1;resizeLast=0;collapsible=1;marginBottom=0;rounded=0;shadow=0;strokeWidth=1;" parent="WIyWlLk6GJQsqaUBKTNV-1" vertex="1">
          <mxGeometry x="200" y="490" width="200" height="140" as="geometry">
            <mxRectangle x="340" y="380" width="170" height="26" as="alternateBounds" />
          </mxGeometry>
        </mxCell>
        <mxCell id="zkfFHV4jXpPFQw0GAbJ--14" value="Type maatregel (&#39;soort&#39;)" style="text;align=left;verticalAlign=top;spacingLeft=4;spacingRight=4;overflow=hidden;rotatable=0;points=[[0,0.5],[1,0.5]];portConstraint=eastwest;" parent="zkfFHV4jXpPFQw0GAbJ--13" vertex="1">
          <mxGeometry y="26" width="200" height="24" as="geometry" />
        </mxCell>
        <mxCell id="tqDPc9yleZxb04GqWjeg-26" value="Omschrijving (&#39;oneliner&#39;)" style="text;align=left;verticalAlign=top;spacingLeft=4;spacingRight=4;overflow=hidden;rotatable=0;points=[[0,0.5],[1,0.5]];portConstraint=eastwest;rounded=0;shadow=0;html=0;" parent="zkfFHV4jXpPFQw0GAbJ--13" vertex="1">
          <mxGeometry y="50" width="200" height="26" as="geometry" />
        </mxCell>
        <mxCell id="tqDPc9yleZxb04GqWjeg-25" value="Toelichting" style="text;align=left;verticalAlign=top;spacingLeft=4;spacingRight=4;overflow=hidden;rotatable=0;points=[[0,0.5],[1,0.5]];portConstraint=eastwest;rounded=0;shadow=0;html=0;" parent="zkfFHV4jXpPFQw0GAbJ--13" vertex="1">
          <mxGeometry y="76" width="200" height="26" as="geometry" />
        </mxCell>
        <mxCell id="yFaYhaL_I76bNWqtTdkX-9" value="Toelichting" style="text;align=left;verticalAlign=top;spacingLeft=4;spacingRight=4;overflow=hidden;rotatable=0;points=[[0,0.5],[1,0.5]];portConstraint=eastwest;rounded=0;shadow=0;html=0;" parent="WIyWlLk6GJQsqaUBKTNV-1" vertex="1">
          <mxGeometry x="200" y="566" width="200" height="26" as="geometry" />
        </mxCell>
        <mxCell id="yFaYhaL_I76bNWqtTdkX-16" style="edgeStyle=orthogonalEdgeStyle;rounded=0;orthogonalLoop=1;jettySize=auto;html=1;exitX=0;exitY=0.5;exitDx=0;exitDy=0;entryX=1;entryY=0.75;entryDx=0;entryDy=0;endArrow=none;endFill=0;strokeColor=#000000;" parent="WIyWlLk6GJQsqaUBKTNV-1" source="tqDPc9yleZxb04GqWjeg-21" target="zkfFHV4jXpPFQw0GAbJ--0" edge="1">
          <mxGeometry relative="1" as="geometry">
            <Array as="points">
              <mxPoint x="540" y="421" />
              <mxPoint x="540" y="214" />
            </Array>
          </mxGeometry>
        </mxCell>
        <mxCell id="yFaYhaL_I76bNWqtTdkX-17" style="edgeStyle=orthogonalEdgeStyle;rounded=0;orthogonalLoop=1;jettySize=auto;html=1;exitX=0;exitY=0.5;exitDx=0;exitDy=0;endArrow=none;endFill=0;strokeColor=#000000;" parent="WIyWlLk6GJQsqaUBKTNV-1" source="tqDPc9yleZxb04GqWjeg-23" target="tqDPc9yleZxb04GqWjeg-26" edge="1">
          <mxGeometry relative="1" as="geometry">
            <Array as="points">
              <mxPoint x="630" y="420" />
              <mxPoint x="540" y="420" />
              <mxPoint x="540" y="553" />
            </Array>
          </mxGeometry>
        </mxCell>
        <mxCell id="yFaYhaL_I76bNWqtTdkX-21" style="edgeStyle=orthogonalEdgeStyle;rounded=0;orthogonalLoop=1;jettySize=auto;html=1;exitX=1;exitY=0.5;exitDx=0;exitDy=0;endArrow=none;endFill=0;strokeColor=#514CD4;" parent="WIyWlLk6GJQsqaUBKTNV-1" source="yFaYhaL_I76bNWqtTdkX-18" edge="1">
          <mxGeometry relative="1" as="geometry">
            <mxPoint x="540" y="320" as="targetPoint" />
          </mxGeometry>
        </mxCell>
        <mxCell id="yFaYhaL_I76bNWqtTdkX-18" value="Vindt grondslag in" style="text;html=1;align=center;verticalAlign=middle;whiteSpace=wrap;rounded=0;strokeColor=#000000;dashed=1;" parent="WIyWlLk6GJQsqaUBKTNV-1" vertex="1">
          <mxGeometry x="390" y="310" width="140" height="30" as="geometry" />
        </mxCell>
        <mxCell id="tqDPc9yleZxb04GqWjeg-3" value="Zichtlijn" style="swimlane;fontStyle=0;align=center;verticalAlign=top;childLayout=stackLayout;horizontal=1;startSize=24;horizontalStack=0;resizeParent=1;resizeLast=0;collapsible=1;marginBottom=0;rounded=0;shadow=0;strokeWidth=1;" parent="WIyWlLk6GJQsqaUBKTNV-1" vertex="1">
          <mxGeometry x="470" y="70" width="160" height="74" as="geometry">
            <mxRectangle x="340" y="380" width="170" height="26" as="alternateBounds" />
          </mxGeometry>
        </mxCell>
        <mxCell id="yFaYhaL_I76bNWqtTdkX-13" value="Beschrijving" style="text;html=1;align=center;verticalAlign=middle;resizable=0;points=[];autosize=1;" parent="tqDPc9yleZxb04GqWjeg-3" vertex="1">
          <mxGeometry y="24" width="160" height="20" as="geometry" />
        </mxCell>
        <mxCell id="tqDPc9yleZxb04GqWjeg-28" value="(in alle pagina&#39;s)" style="swimlane;fontStyle=0;align=center;verticalAlign=top;childLayout=stackLayout;horizontal=1;startSize=26;horizontalStack=0;resizeParent=1;resizeLast=0;collapsible=1;marginBottom=0;rounded=0;shadow=0;strokeWidth=1;" parent="WIyWlLk6GJQsqaUBKTNV-1" vertex="1">
          <mxGeometry x="610" y="560" width="210" height="138" as="geometry">
            <mxRectangle x="230" y="140" width="160" height="26" as="alternateBounds" />
          </mxGeometry>
        </mxCell>
        <mxCell id="tqDPc9yleZxb04GqWjeg-29" value="Status actualiteit (concept/vervangen..)" style="text;align=left;verticalAlign=top;spacingLeft=4;spacingRight=4;overflow=hidden;rotatable=0;points=[[0,0.5],[1,0.5]];portConstraint=eastwest;" parent="tqDPc9yleZxb04GqWjeg-28" vertex="1">
          <mxGeometry y="26" width="210" height="26" as="geometry" />
        </mxCell>
        <mxCell id="yFaYhaL_I76bNWqtTdkX-26" value="Status toelichting" style="text;html=1;align=center;verticalAlign=middle;resizable=0;points=[];autosize=1;" parent="tqDPc9yleZxb04GqWjeg-28" vertex="1">
          <mxGeometry y="52" width="210" height="20" as="geometry" />
        </mxCell>
        <mxCell id="UzE9hGQ9XE8X69CpEvEn-1" value="Onderdeel van thema" style="text;html=1;align=center;verticalAlign=middle;resizable=0;points=[];autosize=1;" vertex="1" parent="tqDPc9yleZxb04GqWjeg-28">
          <mxGeometry y="72" width="210" height="20" as="geometry" />
        </mxCell>
        <mxCell id="UzE9hGQ9XE8X69CpEvEn-2" value="ID" style="text;html=1;align=center;verticalAlign=middle;resizable=0;points=[];autosize=1;" vertex="1" parent="tqDPc9yleZxb04GqWjeg-28">
          <mxGeometry y="92" width="210" height="20" as="geometry" />
        </mxCell>
        <mxCell id="yFaYhaL_I76bNWqtTdkX-25" value="wordt naar verwezen in aspecten?" style="text;html=1;strokeColor=#d6b656;fillColor=#fff2cc;align=center;verticalAlign=middle;whiteSpace=wrap;rounded=0;" parent="WIyWlLk6GJQsqaUBKTNV-1" vertex="1">
          <mxGeometry x="630" y="320" width="160" height="40" as="geometry" />
        </mxCell>
        <mxCell id="j_EIYC90BVnd3u-F7O7h-7" value="Toont afgeleid bij welk aspect er iets over deze functionaliteit wordt gezegd. Definitie uit CORA: &lt;br&gt;&lt;h4&gt;&lt;span class=&quot;mw-headline&quot; id=&quot;Applicatieservice&quot;&gt;Applicatieservice&lt;/span&gt;&lt;/h4&gt;" style="text;html=1;strokeColor=#d6b656;fillColor=#fff2cc;align=center;verticalAlign=middle;whiteSpace=wrap;rounded=0;" parent="WIyWlLk6GJQsqaUBKTNV-1" vertex="1">
          <mxGeometry x="-110" y="620" width="200" height="100" as="geometry" />
        </mxCell>
        <mxCell id="j_EIYC90BVnd3u-F7O7h-8" value="ook mogelijkheid voor paragraaf" style="text;html=1;strokeColor=#d6b656;fillColor=#fff2cc;align=center;verticalAlign=middle;whiteSpace=wrap;rounded=0;" parent="WIyWlLk6GJQsqaUBKTNV-1" vertex="1">
          <mxGeometry x="370" y="340" width="160" height="30" as="geometry" />
        </mxCell>
        <mxCell id="j_EIYC90BVnd3u-F7O7h-9" value="Begrip" style="swimlane;fontStyle=0;align=center;verticalAlign=top;childLayout=stackLayout;horizontal=1;startSize=26;horizontalStack=0;resizeParent=1;resizeLast=0;collapsible=1;marginBottom=0;rounded=0;shadow=0;strokeWidth=1;" parent="WIyWlLk6GJQsqaUBKTNV-1" vertex="1">
          <mxGeometry x="-10" y="140" width="200" height="100" as="geometry">
            <mxRectangle x="340" y="380" width="170" height="26" as="alternateBounds" />
          </mxGeometry>
        </mxCell>
        <mxCell id="j_EIYC90BVnd3u-F7O7h-10" value="Context: thema of algemeen" style="text;align=left;verticalAlign=top;spacingLeft=4;spacingRight=4;overflow=hidden;rotatable=0;points=[[0,0.5],[1,0.5]];portConstraint=eastwest;rounded=0;shadow=0;html=0;" parent="j_EIYC90BVnd3u-F7O7h-9" vertex="1">
          <mxGeometry y="26" width="200" height="26" as="geometry" />
        </mxCell>
        <mxCell id="UzE9hGQ9XE8X69CpEvEn-0" value="is relevant binnen" style="text;html=1;strokeColor=none;fillColor=none;align=center;verticalAlign=middle;whiteSpace=wrap;rounded=0;" vertex="1" parent="WIyWlLk6GJQsqaUBKTNV-1">
          <mxGeometry x="180" y="320" width="90" height="30" as="geometry" />
        </mxCell>
        <mxCell id="UzE9hGQ9XE8X69CpEvEn-3" value="is gerelateerd aan" style="text;html=1;strokeColor=none;fillColor=none;align=center;verticalAlign=middle;whiteSpace=wrap;rounded=0;" vertex="1" parent="WIyWlLk6GJQsqaUBKTNV-1">
          <mxGeometry x="100" y="530" width="90" height="30" as="geometry" />
        </mxCell>
        <mxCell id="UzE9hGQ9XE8X69CpEvEn-4" value="is relevant binnen" style="text;html=1;strokeColor=none;fillColor=none;align=center;verticalAlign=middle;whiteSpace=wrap;rounded=0;" vertex="1" parent="WIyWlLk6GJQsqaUBKTNV-1">
          <mxGeometry x="180" y="450" width="90" height="30" as="geometry" />
        </mxCell>
        <mxCell id="j_EIYC90BVnd3u-F7O7h-2" value="Functionaliteit" style="swimlane;fontStyle=0;align=center;verticalAlign=top;childLayout=stackLayout;horizontal=1;startSize=26;horizontalStack=0;resizeParent=1;resizeLast=0;collapsible=1;marginBottom=0;rounded=0;shadow=0;strokeWidth=1;" parent="WIyWlLk6GJQsqaUBKTNV-1" vertex="1">
          <mxGeometry x="-110" y="520" width="200" height="100" as="geometry">
            <mxRectangle x="340" y="380" width="170" height="26" as="alternateBounds" />
          </mxGeometry>
        </mxCell>
        <mxCell id="j_EIYC90BVnd3u-F7O7h-4" value="Omschrijving (&#39;oneliner&#39;)" style="text;align=left;verticalAlign=top;spacingLeft=4;spacingRight=4;overflow=hidden;rotatable=0;points=[[0,0.5],[1,0.5]];portConstraint=eastwest;rounded=0;shadow=0;html=0;" parent="j_EIYC90BVnd3u-F7O7h-2" vertex="1">
          <mxGeometry y="26" width="200" height="26" as="geometry" />
        </mxCell>
        <mxCell id="j_EIYC90BVnd3u-F7O7h-5" value="Toelichting" style="text;align=left;verticalAlign=top;spacingLeft=4;spacingRight=4;overflow=hidden;rotatable=0;points=[[0,0.5],[1,0.5]];portConstraint=eastwest;rounded=0;shadow=0;html=0;" parent="j_EIYC90BVnd3u-F7O7h-2" vertex="1">
          <mxGeometry y="52" width="200" height="26" as="geometry" />
        </mxCell>
      </root>
    </mxGraphModel>
  </diagram>
</mxfile>
